<svg width="144" height="144" viewBox="0 0 144 144" fill="none" xmlns="http://www.w3.org/2000/svg">
<g clip-path="url(#clip0_1_10)">
<rect width="144" height="144" fill="#5865F2"/>
<path d="M81.5854 63.6284C73.9375 60.0956 65.7363 57.496 57.1611 56.0058C57.0041 55.9779 56.8471 56.0522 56.7684 56.1961C55.712 58.0809 54.5441 60.5413 53.7271 62.4772C44.5011 61.0891 35.3259 61.0891 26.2938 62.4772C25.4768 60.4995 24.2629 58.0809 23.2059 56.1961C23.1229 56.0568 22.9659 55.9826 22.8137 56.0058C14.243 57.4913 6.04155 60.091 -1.61525 63.6284C-1.67986 63.6563 -1.73525 63.7027 -1.77216 63.7677C-17.3304 87.1418 -21.595 109.945 -19.5043 132.465C-19.495 132.576 -19.4304 132.683 -19.3473 132.748C-9.08284 140.329 0.858571 144.934 10.62 147.984C10.7723 148.03 10.9385 147.974 11.04 147.844C13.3476 144.674 15.4061 141.331 17.1689 137.817C17.2707 137.608 17.1738 137.367 16.9616 137.283C13.6984 136.039 10.5877 134.521 7.60155 132.799C7.36155 132.66 7.34313 132.316 7.56464 132.153C8.19234 131.68 8.81998 131.188 9.41998 130.691C9.53077 130.598 9.68307 130.58 9.80768 130.635C29.4459 139.656 50.7089 139.656 70.1163 130.635C70.2454 130.575 70.3932 130.594 70.5084 130.686C71.1084 131.183 71.7363 131.68 72.3732 132.153C72.5902 132.316 72.5763 132.66 72.3405 132.799C69.3502 134.554 66.2441 136.039 62.9714 137.279C62.7593 137.362 62.6672 137.608 62.7684 137.817C64.5732 141.326 66.6314 144.669 68.8932 147.84C68.9902 147.974 69.1605 148.03 69.3175 147.984C79.1205 144.934 89.0623 140.329 99.3266 132.748C99.4188 132.683 99.4745 132.58 99.4836 132.469C101.985 106.435 95.2927 83.8177 81.7423 63.7723C81.7097 63.7027 81.6497 63.6563 81.5854 63.6284ZM20.0998 118.756C14.1876 118.756 9.31846 113.292 9.31846 106.588C9.31846 99.885 14.0953 94.4254 20.0998 94.4254C26.155 94.4254 30.978 99.9313 30.8859 106.588C30.8859 113.292 26.1089 118.756 20.0998 118.756ZM59.9763 118.756C54.0641 118.756 49.1902 113.292 49.1902 106.588C49.1902 99.885 53.9671 94.4254 59.9763 94.4254C66.0272 94.4254 70.8545 99.9313 70.7575 106.588C70.7575 113.292 66.0272 118.756 59.9763 118.756Z" fill="#4B56CE"/>
</g>
<defs>
<clipPath id="clip0_1_10">
<rect width="144" height="144" fill="white"/>
</clipPath>
</defs>
</svg>
