<svg width="144" height="144" viewBox="0 0 144 144" fill="none" xmlns="http://www.w3.org/2000/svg">
<g clip-path="url(#clip0_1_10)">
<rect width="144" height="144" fill="#5865F2"/>
<path d="M81.5854 63.6284C73.9375 60.0956 65.7363 57.496 57.1611 56.0058C57.0041 55.9779 56.8471 56.0522 56.7684 56.1961C55.712 58.0809 54.5441 60.5413 53.7271 62.4772C44.5011 61.0891 35.3259 61.0891 26.2938 62.4772C25.4768 60.4995 24.2629 58.0809 23.2059 56.1961C23.1229 56.0568 22.9659 55.9826 22.8137 56.0058C14.243 57.4913 6.04155 60.091 -1.61525 63.6284C-1.67986 63.6563 -1.73525 63.7027 -1.77216 63.7677C-17.3304 87.1418 -21.595 109.945 -19.5043 132.465C-19.495 132.576 -19.4304 132.683 -19.3473 132.748C-9.08284 140.329 0.85857 144.934 10.62 147.984C10.7723 148.03 10.9385 147.974 11.04 147.844C13.3476 144.674 15.4061 141.331 17.1689 137.817C17.2707 137.608 17.1738 137.367 16.9616 137.283C13.6984 136.039 10.5877 134.521 7.60155 132.799C7.36156 132.66 7.34313 132.316 7.56464 132.153C8.19234 131.68 8.81998 131.188 9.41998 130.691C9.53077 130.598 9.68307 130.58 9.80768 130.635C29.4459 139.656 50.7089 139.656 70.1163 130.635C70.2454 130.575 70.3932 130.594 70.5084 130.686C71.1084 131.183 71.7363 131.68 72.3732 132.153C72.5902 132.316 72.5763 132.66 72.3405 132.799C69.3502 134.554 66.2441 136.039 62.9714 137.279C62.7593 137.362 62.6672 137.608 62.7684 137.817C64.5732 141.326 66.6314 144.669 68.8932 147.84C68.9902 147.974 69.1605 148.03 69.3175 147.984C79.1205 144.934 89.0623 140.329 99.3266 132.748C99.4188 132.683 99.4745 132.58 99.4836 132.469C101.985 106.435 95.2927 83.8177 81.7423 63.7723C81.7097 63.7027 81.6497 63.6563 81.5854 63.6284ZM20.0998 118.756C14.1876 118.756 9.31846 113.292 9.31846 106.588C9.31846 99.885 14.0953 94.4254 20.0998 94.4254C26.155 94.4254 30.978 99.9313 30.8859 106.588C30.8859 113.292 26.1089 118.756 20.0998 118.756ZM59.9763 118.756C54.0641 118.756 49.1902 113.292 49.1902 106.588C49.1902 99.885 53.9671 94.4254 59.9763 94.4254C66.0272 94.4254 70.8545 99.9313 70.7575 106.588C70.7575 113.292 66.0272 118.756 59.9763 118.756Z" fill="#4B56CE"/>
<path d="M100.004 66.5159C84.5544 51.0689 59.5074 51.0689 44.0604 66.5159C36.9294 73.6559 37.9494 82.7819 43.3314 88.1699C43.7045 88.5428 44.1872 88.7863 44.7088 88.8646C45.2304 88.9429 45.7634 88.8519 46.2294 88.6049L59.1894 81.7439C59.7691 81.4373 60.2211 80.9349 60.4651 80.3262C60.709 79.7175 60.729 79.042 60.5214 78.4199L58.3254 71.8349C62.3246 68.9784 67.1164 67.4428 72.0309 67.4428C76.9455 67.4428 81.7373 68.9784 85.7364 71.8349L83.4444 80.2469C83.2673 80.8982 83.3342 81.5919 83.6325 82.1973C83.9309 82.8028 84.4401 83.2785 85.0644 83.5349L97.9074 88.8239C98.8374 89.2079 99.9084 88.9919 100.619 88.2839C105.995 82.9049 107.129 73.6439 100.004 66.5189V66.5159Z" fill="white"/>
</g>
<defs>
<clipPath id="clip0_1_10">
<rect width="144" height="144" fill="white"/>
</clipPath>
</defs>
</svg>
